HIERARCHY
ROOT SimulationBone
{
	OFFSET 0.000000 0.000000 0.000000
	CHANNELS 6 Xposition Yposition Zposition Zrotation Yrotation Xrotation 
	JOINT Hips
	{
		OFFSET 0.000000 0.000000 0.000000
		CHANNELS 6 Xposition Yposition Zposition Zrotation Yrotation Xrotation 
		JOINT LeftUpLeg
		{
			OFFSET 0.103458 1.857831 10.548505
			CHANNELS 3 Zrotation Yrotation Xrotation
			JOINT LeftLeg
			{
				OFFSET 43.500000 -0.000031 0.000002
				CHANNELS 3 Zrotation Yrotation Xrotation
				JOINT LeftFoot
				{
					OFFSET 42.372200 0.000023 0.000003
					CHANNELS 3 Zrotation Yrotation Xrotation
					JOINT LeftToe
					{
						OFFSET 17.299997 -0.000001 -0.000010
						CHANNELS 3 Zrotation Yrotation Xrotation
						End Site
						{
							OFFSET 0.000000 0.000000 0.000000
						}
					}
				}
			}
		}
		JOINT RightUpLeg
		{
			OFFSET 0.103457 1.857828 -10.548510
			CHANNELS 3 Zrotation Yrotation Xrotation
			JOINT RightLeg
			{
				OFFSET 43.500046 -0.000015 0.000002
				CHANNELS 3 Zrotation Yrotation Xrotation
				JOINT RightFoot
				{
					OFFSET 42.372261 -0.000008 0.000023
					CHANNELS 3 Zrotation Yrotation Xrotation
					JOINT RightToe
					{
						OFFSET 17.299990 -0.000007 -0.000002
						CHANNELS 3 Zrotation Yrotation Xrotation
						End Site
						{
							OFFSET 0.000000 0.000000 0.000000
						}
					}
				}
			}
		}
		JOINT Spine
		{
			OFFSET 6.901967 -2.603726 -0.000001
			CHANNELS 3 Zrotation Yrotation Xrotation
			JOINT Spine1
			{
				OFFSET 12.588100 -0.000009 -0.000003
				CHANNELS 3 Zrotation Yrotation Xrotation
				JOINT Spine2
				{
					OFFSET 12.343202 0.000008 0.000008
					CHANNELS 3 Zrotation Yrotation Xrotation
					JOINT Neck
					{
						OFFSET 25.832897 -0.000015 -0.000004
						CHANNELS 3 Zrotation Yrotation Xrotation
						JOINT Head
						{
							OFFSET 11.766609 0.000013 -0.000006
							CHANNELS 3 Zrotation Yrotation Xrotation
							End Site
							{
								OFFSET 0.000000 0.000000 0.000000
							}
						}
					}
					JOINT LeftShoulder
					{
						OFFSET 19.745911 -1.480373 6.000098
						CHANNELS 3 Zrotation Yrotation Xrotation
						JOINT LeftArm
						{
							OFFSET 11.284123 -0.000007 -0.000032
							CHANNELS 3 Zrotation Yrotation Xrotation
							JOINT LeftForeArm
							{
								OFFSET 33.000050 0.000005 0.000031
								CHANNELS 3 Zrotation Yrotation Xrotation
								JOINT LeftHand
								{
									OFFSET 25.200008 0.000017 0.000013
									CHANNELS 3 Zrotation Yrotation Xrotation
									End Site
									{
										OFFSET 0.000000 0.000000 0.000000
									}
								}
							}
						}
					}
					JOINT RightShoulder
					{
						OFFSET 19.746092 -1.480379 -6.000077
						CHANNELS 3 Zrotation Yrotation Xrotation
						JOINT RightArm
						{
							OFFSET 11.284136 -0.000017 -0.000017
							CHANNELS 3 Zrotation Yrotation Xrotation
							JOINT RightForeArm
							{
								OFFSET 33.000099 0.000019 0.000015
								CHANNELS 3 Zrotation Yrotation Xrotation
								JOINT RightHand
								{
									OFFSET 25.199780 0.000140 0.000408
									CHANNELS 3 Zrotation Yrotation Xrotation
									End Site
									{
										OFFSET 0.000000 0.000000 0.000000
									}
								}
							}
						}
					}
				}
			}
		}
	}
}
MOTION
Frames: 13
Frame Time: 0.016667
152.975893 0.000000 -75.455521 0.000000 257.165811 0.000000 -1.594799 91.574677 -0.674403 91.053458 -1.942784 178.329047 174.935051 -1.366701 172.606571 -17.439203 -2.805730 -5.103286 76.246173 3.158663 -1.850868 21.454551 0.003086 0.000001 157.868621 6.962208 179.331835 -43.233908 3.206694 1.389023 71.988403 0.028795 3.513664 21.454558 -0.003121 -0.000018 8.164354 -0.647192 -0.069345 6.317255 -1.289696 -0.173765 5.999062 -1.290589 -0.165968 4.598310 -3.290164 -11.982065 -8.883462 11.981253 -16.131293 -173.599966 -78.726482 -8.052093 -21.896324 36.768038 3.374338 -23.652971 -13.118463 1.001702 13.146078 -6.741827 3.337971 -166.629485 70.596067 15.138400 -11.490038 -42.320623 -21.432784 -29.564743 17.398650 -1.400775 4.981368 -10.841531 -17.008359 
152.933663 0.000000 -75.320467 0.000000 256.392696 0.000000 -1.591976 91.546819 -0.613754 91.128862 -1.975046 178.837064 175.126063 -1.454499 172.203167 -17.570587 -2.842122 -4.989336 76.446565 3.080075 -1.852210 21.454550 0.003090 0.000000 157.538222 7.187753 179.979211 -44.031844 3.283057 1.057618 71.724537 0.165694 3.173572 21.454554 -0.003118 -0.000022 8.154139 -0.645152 -0.196656 6.298248 -1.278713 -0.428006 5.980059 -1.281144 -0.420280 4.393466 -2.860261 -12.262759 -8.740066 12.091296 -16.373719 -177.284616 -78.512675 -4.299961 -24.122169 38.785548 5.733448 -23.158225 -12.098138 0.920800 14.025508 -3.499238 6.691693 -166.143684 69.861630 15.642860 -11.516079 -44.567750 -23.195105 -28.573168 16.655006 -1.333235 4.825342 -11.144740 -18.270505 
152.858649 0.000000 -75.170310 0.000000 255.578544 0.000000 -1.580586 91.504883 -0.587109 91.196234 -2.068325 179.371723 175.317979 -1.466395 171.969451 -17.720972 -2.902936 -4.985221 76.677615 3.069723 -1.888418 21.454551 0.003092 -0.000000 157.472661 7.502398 -179.232784 -44.471917 3.454612 1.375468 72.315467 -0.109135 3.097689 21.454555 -0.003116 -0.000021 8.130278 -0.654402 -0.331568 6.252058 -1.290038 -0.697895 5.933893 -1.294090 -0.690094 4.138493 -2.363142 -12.565749 -8.538924 12.050819 -16.577651 179.048300 -78.379078 -0.565311 -26.357270 40.746507 8.642502 -23.363138 -11.370078 0.885271 13.183777 -0.568255 11.235061 -165.263010 69.190824 16.555935 -11.081513 -46.849411 -25.082182 -27.626875 16.180737 -1.287025 4.806432 -11.515438 -19.080649 
152.751901 0.000000 -75.006109 0.000000 254.723796 0.000000 -1.555969 91.456682 -0.587408 91.248859 -2.191022 179.907867 175.516469 -1.435048 171.898006 -17.879362 -2.985208 -5.098685 76.936973 3.129993 -1.971072 21.454551 0.003092 -0.000000 157.606677 7.817905 -178.174969 -44.578640 3.568112 2.253364 73.390923 -0.729538 3.246073 21.454556 -0.003114 -0.000018 8.090563 -0.666925 -0.482196 6.174387 -1.307328 -0.999193 5.856259 -1.313188 -0.991276 3.842225 -1.897694 -12.832804 -8.303280 11.940932 -16.722860 175.920953 -78.274839 2.619955 -28.683032 42.573435 12.091036 -24.197678 -11.011045 0.878996 11.360417 1.930949 16.658234 -164.192073 68.628988 17.666744 -10.151192 -49.112772 -27.048283 -26.820707 15.897684 -1.255428 4.895274 -11.836248 -19.348995 
152.614467 0.000000 -74.828922 0.000000 253.828766 0.000000 -1.513161 91.410027 -0.607956 91.281528 -2.311178 -179.579445 175.727749 -1.393092 171.981199 -18.034616 -3.086044 -5.337517 77.222111 3.263436 -2.111641 21.454551 0.003091 0.000000 157.873389 8.045507 -176.718741 -44.381824 3.460285 3.602359 74.577387 -1.633823 3.577357 21.454558 -0.003111 -0.000017 8.032752 -0.674739 -0.656664 6.060786 -1.314370 -1.347687 5.742702 -1.322333 -1.339718 3.515271 -1.562100 -13.004591 -8.057020 11.842359 -16.788742 173.895359 -78.172828 4.684091 -31.204131 44.201240 16.067527 -25.595785 -11.096692 0.901074 9.202005 3.803353 22.761896 -163.098496 68.224940 18.801348 -8.698225 -51.305436 -29.041362 -26.250690 15.727687 -1.234345 5.060658 -11.993418 -18.984723 
152.447394 0.000000 -74.639809 0.000000 252.893665 0.000000 -1.450576 91.372737 -0.642002 91.291620 -2.399317 -179.125938 175.961177 -1.366599 172.205167 -18.168724 -3.195792 -5.713780 77.525166 3.474785 -2.324923 21.454550 0.003090 0.000000 158.215913 8.107317 -174.825154 -43.907303 3.038009 5.329653 75.565851 -2.766725 4.033724 21.454557 -0.003106 -0.000018 7.955736 -0.671631 -0.854372 5.908894 -1.299018 -1.741866 5.590863 -1.309375 -1.733988 3.183311 -1.425524 -13.040713 -7.834510 11.820354 -16.767888 173.252367 -78.060045 5.341585 -33.973916 45.594891 20.423663 -27.525669 -11.626328 0.961977 7.182269 4.783512 29.165349 -162.072814 68.003189 19.864972 -6.726129 -53.348599 -31.067433 -25.983827 15.588982 -1.220818 5.274118 -11.929038 -18.036367 
152.251731 0.000000 -74.439828 0.000000 251.918633 0.000000 -1.381050 91.352654 -0.680866 91.281729 -2.436948 -178.811005 176.238183 -1.355296 172.531876 -18.236830 -3.277558 -6.256554 77.817519 3.776950 -2.639422 21.454551 0.003089 0.000000 158.629641 7.972002 -172.808185 -43.122784 2.508763 7.340105 76.311893 -4.103894 4.461206 21.454557 -0.003103 -0.000020 7.863116 -0.658268 -1.039787 5.725406 -1.264589 -2.110820 5.407441 -1.277185 -2.103152 2.928364 -1.444205 -12.981342 -7.711167 11.879601 -16.708029 173.107920 -77.934475 5.492092 -36.762912 46.758911 24.464335 -30.078530 -12.296860 1.057069 5.394030 4.660090 34.426348 -160.997803 67.874401 20.979055 -4.328882 -55.045879 -33.388580 -25.967834 15.385478 -1.207842 5.503732 -11.796827 -17.112481 
152.028525 0.000000 -74.230039 0.000000 250.903765 0.000000 -1.315435 91.352282 -0.717706 91.257230 -2.422402 -178.697803 176.578354 -1.347879 172.894227 -18.205973 -3.295659 -6.968254 78.073942 4.166736 -3.074013 21.454552 0.003088 -0.000000 159.121136 7.648038 -170.983204 -41.992050 2.096924 9.525089 76.853321 -5.601594 4.728007 21.454559 -0.003105 -0.000019 7.760215 -0.638582 -1.179189 5.520638 -1.220543 -2.387444 5.202746 -1.234804 -2.380042 2.803467 -1.549235 -12.877182 -7.725811 11.996580 -16.650485 172.612909 -77.799209 5.999869 -39.354765 47.674786 27.477905 -33.317851 -12.834325 1.163931 3.877373 3.373525 37.438080 -159.788929 67.749801 22.231904 -1.640169 -56.229980 -36.248164 -26.126508 15.066003 -1.190405 5.700067 -11.733402 -16.718666 
151.778826 0.000000 -74.011500 0.000000 249.849133 0.000000 -1.244014 91.352753 -0.758237 91.227483 -2.410104 -178.740735 176.981990 -1.314298 173.132960 -18.115438 -3.250243 -7.726977 78.306451 4.568389 -3.594750 21.454555 0.003088 -0.000000 159.695369 7.245507 -169.315772 -40.577367 1.814611 11.708080 77.269676 -7.119761 4.887498 21.454562 -0.003109 -0.000017 7.654463 -0.623185 -1.281041 5.309807 -1.187353 -2.589263 4.991976 -1.202824 -2.582058 2.691751 -1.680813 -12.737023 -7.729746 12.093565 -16.553908 172.093650 -77.695016 6.531618 -41.780461 48.435985 29.277318 -37.088356 -13.380763 1.279044 2.802309 1.730512 39.565263 -158.613917 67.672487 23.449212 1.267904 -56.995338 -39.717074 -26.407129 14.773586 -1.176187 5.774668 -11.615649 -16.389360 
151.503681 0.000000 -73.785270 0.000000 248.754809 0.000000 -1.156419 91.336021 -0.809176 91.203616 -2.448647 -178.874796 177.447142 -1.231426 173.119094 -18.011821 -3.153463 -8.414981 78.534111 4.910745 -4.162315 21.454557 0.003091 0.000001 160.360380 6.862753 -167.685820 -38.963014 1.627698 13.715647 77.653815 -8.517390 5.011298 21.454559 -0.003109 -0.000017 7.553446 -0.620213 -1.360531 5.108497 -1.180225 -2.747050 4.790706 -1.196650 -2.739882 2.479235 -1.784922 -12.561311 -7.588152 12.085149 -16.368998 171.969153 -77.661533 6.659412 -44.113583 49.133438 29.855221 -41.171907 -14.086491 1.422314 2.216191 0.545214 42.128249 -157.629390 67.690820 24.467737 4.324194 -57.462337 -43.756230 -26.752801 14.656009 -1.174409 5.670954 -11.315122 -15.636723 
151.204139 0.000000 -73.552408 0.000000 247.620887 0.000000 -1.058004 91.308693 -0.865204 91.207139 -2.506413 -179.066081 177.982067 -1.130605 172.935308 -17.899426 -3.024718 -9.055858 78.760700 5.213838 -4.767770 21.454557 0.003092 0.000001 161.116212 6.455704 -165.988131 -37.218072 1.489152 15.451261 78.124584 -9.736881 5.061200 21.454557 -0.003108 -0.000017 7.463205 -0.621068 -1.417709 4.928609 -1.181690 -2.860522 4.610849 -1.198804 -2.853339 2.232934 -1.823953 -12.360791 -7.409924 11.911313 -16.099811 171.960817 -77.682428 6.667305 -46.416558 49.700540 29.442581 -45.279000 -14.720142 1.586230 1.524409 -0.473653 44.013953 -156.766091 67.720018 25.360427 7.284121 -57.621134 -47.938309 -27.065496 14.686264 -1.181838 5.480206 -10.934482 -14.851729 
150.881247 0.000000 -73.313974 0.000000 246.447504 0.000000 -0.954220 91.281363 -0.917633 91.253487 -2.540534 -179.302114 178.597313 -1.050872 172.682030 -17.764644 -2.882618 -9.699352 78.986538 5.514428 -5.406729 21.454553 0.003089 -0.000001 161.949544 5.963484 -164.179530 -35.420365 1.380761 16.838682 78.769376 -10.741915 4.970264 21.454557 -0.003108 -0.000017 7.386246 -0.615941 -1.449300 4.774864 -1.172080 -2.922721 4.457136 -1.189568 -2.915595 2.060496 -1.789964 -12.152040 -7.338697 11.572457 -15.781247 171.750052 -77.735111 6.880327 -48.699651 50.059920 28.314140 -49.179059 -15.019218 1.727048 0.290325 -1.688734 43.893620 -155.975570 67.673828 26.179231 9.893406 -57.474883 -51.768268 -27.265961 14.773337 -1.190795 5.312563 -10.608702 -14.549274 
150.536054 0.000000 -73.071026 0.000000 245.234859 0.000000 -0.837000 91.255928 -0.958698 91.318081 -2.540777 -179.624685 179.301126 -1.001298 172.321124 -17.565194 -2.736559 -10.358358 79.216232 5.825051 -6.063429 21.454550 0.003086 -0.000002 162.822393 5.410005 -162.442430 -33.686516 1.392049 17.815744 79.513455 -11.500889 4.681057 21.454558 -0.003109 -0.000017 7.312582 -0.606955 -1.453731 4.627341 -1.155838 -2.930507 4.309629 -1.173371 -2.923480 2.049956 -1.775115 -11.962456 -7.408934 11.281785 -15.516788 171.535351 -77.831476 7.095982 -50.838323 50.205598 26.617622 -53.000372 -14.960252 1.846709 -0.711672 -2.653975 41.850924 -155.453315 67.605899 26.721021 12.134926 -57.077741 -54.964320 -27.391668 14.744645 -1.191259 5.240206 -10.354270 -14.873152 
